{"title":"The Man With The Iron Fists (Portable).m4v","uid":8349128,"size":1187781086,"categoryP":"video","categoryS":"handheld","magnet":"?xt=urn:btih:a7b0fc407e129a7139f4e9db1362e7e52f7e82f0&amp;dn=The+Man+With+The+Iron+Fists+%28Portable%29.m4v&amp;tr=udp%3A%2F%2Ftracker.openbittorrent.com%3A80&amp;tr=udp%3A%2F%2Fopen.demonii.com%3A1337&amp;tr=udp%3A%2F%2Ftracker.coppersurfer.tk%3A6969&amp;tr=udp%3A%2F%2Fexodus.desync.com%3A6969","seeders":2,"leechers":0,"uploader":"arctictpb","files":1,"time":1365280414,"description":"General\nComplete name                            : The Man With The Iron Fists (Portable).m4v\nFormat                                   : MPEG-4\nFormat profile                           : Base Media / Version 2\nCodec ID                                 : mp42\nFile size                                : 1.11 GiB\nDuration                                 : 1h 47mn\nOverall bit rate mode                    : Variable\nOverall bit rate                         : 1 474 Kbps\nMovie name                               : The Man with the Iron Fists\nPerformer                                : Russell Crowe, Jamie Chung, Lucy Liu, Zhu Zhu, Dave Bautista, Cung Le, Rick Yune, Gordon Liu Chia-Hui, Mary Christina Brown, Jin Auyeung, Byron Mann, Andrew Ng, Chen Kuan-Tai, Yoyao Hsueh, Telly Liu, RZA, Grace Huang, Andrew Lin, Pam Grier, Terence Yin, Daniel Wu\nGenre                                    : Action\nRecorded date                            : 2012-11-02\nEncoded date                             : UTC 2013-03-01 01:19:05\nTagged date                              : UTC 2013-04-06 16:29:10\nWriting application                      : HandBrake 5274svn 2013022801\nCover                                    : Yes\ndesc                                     : In feudal China, a blacksmith who makes weapons for a small village is put in the position where he must defend himself and his fellow villagers.\n\nVideo\nID                                       : 1\nFormat                                   : AVC\nFormat/Info                              : Advanced Video Codec\nFormat profile                           : &lt;a class=&quot;__cf_email__&quot; href=&quot;/cdn-cgi/l/email-protection&quot; data-cfemail=&quot;81c9e8e6e9c1cdb2afb0&quot;&gt;[email&amp;#160;protected]&lt;/a&gt;&lt;script cf-hash='f9e31' type=&quot;text/javascript&quot;&gt;\n/* &lt;![CDATA[ */!function(){try{var t=&quot;currentScript&quot;in document?document.currentScript:function(){for(var t=document.getElementsByTagName(&quot;script&quot;),e=t.length;e--;)if(t[e].getAttribute(&quot;cf-hash&quot;))return t[e]}();if(t&amp;&amp;t.previousSibling){var e,r,n,i,c=t.previousSibling,a=c.getAttribute(&quot;data-cfemail&quot;);if(a){for(e=&quot;&quot;,r=parseInt(a.substr(0,2),16),n=2;a.length-n;n+=2)i=parseInt(a.substr(n,2),16)^r,e+=String.fromCharCode(i);e=document.createTextNode(e),c.parentNode.replaceChild(e,c)}}}catch(u){}}();/* ]]&gt; */&lt;/script&gt;\nFormat settings, CABAC                   : Yes\nFormat settings, ReFrames                : 4 frames\nCodec ID                                 : avc1\nCodec ID/Info                            : Advanced Video Coding\nDuration                                 : 1h 47mn\nBit rate mode                            : Variable\nBit rate                                 : 1 300 Kbps\nWidth                                    : 960 pixels\nHeight                                   : 400 pixels\nDisplay aspect ratio                     : 2.40:1\nFrame rate mode                          : Variable\nFrame rate                               : 23.976 fps\nMinimum frame rate                       : 17.026 fps\nMaximum frame rate                       : 40.504 fps\nColor space                              : YUV\nChroma subsampling                       : 4:2:0\nBit depth                                : 8 bits\nScan type                                : Progressive\nBits/(Pixel*Frame)                       : 0.141\nStream size                              : 999 MiB (88%)\nWriting library                          : x264 core 130\nEncoding settings                        : cabac=1 / ref=4 / deblock=1:0:0 / analyse=0x3:0x133 / me=umh / subme=10 / psy=1 / psy_rd=1.00:0.15 / mixed_ref=1 / me_range=32 / chroma_me=1 / trellis=2 / 8x8dct=1 / cqm=0 / deadzone=21,11 / fast_pskip=1 / chroma_qp_offset=-3 / threads=12 / lookahead_threads=1 / sliced_threads=0 / nr=0 / decimate=1 / interlaced=0 / bluray_compat=0 / constrained_intra=0 / bframes=4 / b_pyramid=2 / b_adapt=2 / b_bias=0 / direct=3 / weightb=1 / open_gop=0 / weightp=2 / keyint=300 / keyint_min=30 / scenecut=40 / intra_refresh=0 / rc_lookahead=60 / rc=crf / mbtree=1 / crf=19.0 / qcomp=0.60 / qpmin=4 / qpmax=69 / qpstep=4 / vbv_maxrate=17500 / vbv_bufsize=17500 / crf_max=0.0 / nal_hrd=none / ip_ratio=1.40 / aq=1:1.00\nLanguage                                 : English\nEncoded date                             : UTC 2013-03-01 01:19:05\nTagged date                              : UTC 2013-03-01 02:37:26\nColor primaries                          : BT.709\nTransfer characteristics                 : BT.709\nMatrix coefficients                      : BT.709\n\nAudio\nID                                       : 2\nFormat                                   : AAC\nFormat/Info                              : Advanced Audio Codec\nFormat profile                           : LC\nCodec ID                                 : 40\nDuration                                 : 1h 47mn\nBit rate mode                            : Variable\nBit rate                                 : 165 Kbps\nMaximum bit rate                         : 274 Kbps\nChannel(s)                               : 2 channels\nChannel positions                        : Front: L R\nSampling rate                            : 48.0 KHz\nCompression mode                         : Lossy\nDelay relative to video                  : 100ms\nStream size                              : 127 MiB (11%)\nLanguage                                 : English\nEncoded date                             : UTC 2013-03-01 01:19:05\nTagged date                              : UTC 2013-03-01 02:37:26","torrent":{"xt":"urn:btih:a7b0fc407e129a7139f4e9db1362e7e52f7e82f0","amp;dn":"The+Man+With+The+Iron+Fists+%28Portable%29.m4v","amp;tr":["udp%3A%2F%2Ftracker.openbittorrent.com%3A80","udp%3A%2F%2Fopen.demonii.com%3A1337","udp%3A%2F%2Ftracker.coppersurfer.tk%3A6969","udp%3A%2F%2Fexodus.desync.com%3A6969"],"infoHash":"a7b0fc407e129a7139f4e9db1362e7e52f7e82f0","infoHashBuffer":{"type":"Buffer","data":[167,176,252,64,126,18,154,113,57,244,233,219,19,98,231,229,47,126,130,240]},"announce":[],"urlList":[]}}